<?xml version="1.0" standalone="no"?><!DOCTYPE svg PUBLIC "-//W3C//DTD SVG 1.1//EN" "http://www.w3.org/Graphics/SVG/1.1/DTD/svg11.dtd"><svg t="1692235307289" class="icon" viewBox="0 0 8140 1024" version="1.1" xmlns="http://www.w3.org/2000/svg" p-id="1615" xmlns:xlink="http://www.w3.org/1999/xlink" width="1589.84375" height="200"><path d="M547.84 445.44h547.84v122.88H547.84z" fill="#FF6900" p-id="1616"></path><path d="M1367.04 0h-363.52l87.04 122.88L1356.8 204.8c51.2 15.36 81.92 61.44 81.92 107.52v394.24c0 51.2-30.72 92.16-81.92 107.52l-266.24 81.92-81.92 128h363.52c153.6 0 271.36-122.88 271.36-271.36V271.36c0-148.48-122.88-271.36-276.48-271.36zM281.6 819.2c-51.2-15.36-81.92-61.44-81.92-107.52V312.32c0-51.2 30.72-92.16 81.92-107.52l266.24-81.92L634.88 0H271.36C122.88 0 0 122.88 0 271.36v476.16c0 153.6 122.88 271.36 271.36 271.36h363.52l-87.04-122.88L281.6 819.2zM5913.6 40.96c-158.72 0-286.72 128-286.72 281.6V716.8c0 153.6 128 281.6 286.72 281.6 158.72 0 286.72-128 286.72-281.6v-5.12h-122.88v5.12c0 87.04-71.68 158.72-163.84 158.72-87.04 0-163.84-71.68-163.84-158.72V322.56c0-87.04 71.68-158.72 163.84-158.72 87.04 0 163.84 71.68 163.84 158.72v5.12h122.88v-5.12c0-153.6-128-281.6-286.72-281.6zM6717.44 291.84c-133.12 0-240.64 102.4-245.76 230.4V768c5.12 128 112.64 230.4 245.76 230.4 133.12 0 240.64-102.4 245.76-230.4v-240.64c-5.12-133.12-112.64-235.52-245.76-235.52z m122.88 460.8c0 66.56-56.32 122.88-122.88 122.88-66.56 0-122.88-51.2-122.88-122.88v-209.92c0-66.56 56.32-122.88 122.88-122.88 66.56 0 122.88 56.32 122.88 122.88v209.92zM6261.76 40.96h122.88v942.08h-122.88zM2851.84 291.84h122.88v686.08h-122.88zM2606.08 40.96h122.88v942.08h-122.88zM2293.76 40.96h-153.6l-250.88 942.08h122.88l66.56-250.88h271.36l66.56 245.76h122.88L2293.76 40.96z m-184.32 568.32l102.4-389.12 102.4 389.12h-204.8zM7424 762.88c0 66.56-56.32 122.88-122.88 122.88-66.56 0-122.88-56.32-122.88-122.88V291.84h-122.88v491.52c0 117.76 97.28 215.04 215.04 215.04 20.48 0 40.96-5.12 61.44-10.24 10.24-5.12 25.6-10.24 35.84-15.36 20.48-10.24 35.84-20.48 51.2-35.84l5.12-5.12v51.2h122.88V291.84H7424v471.04zM2851.84 40.96h122.88v122.88h-122.88zM3374.08 291.84c-56.32 0-107.52 20.48-148.48 61.44l-5.12 5.12V40.96h-122.88v942.08h122.88v-51.2l5.12 5.12c40.96 40.96 92.16 61.44 148.48 61.44 117.76 0 215.04-97.28 215.04-215.04V506.88c0-117.76-97.28-215.04-215.04-215.04z m92.16 471.04c0 66.56-56.32 122.88-122.88 122.88s-122.88-56.32-122.88-122.88v-235.52c0-66.56 56.32-122.88 122.88-122.88s122.88 56.32 122.88 122.88v235.52zM4531.2 291.84c-56.32 0-107.52 20.48-148.48 61.44l-10.24 5.12V40.96H4249.6v942.08h122.88v-51.2l5.12 5.12c40.96 40.96 92.16 61.44 148.48 61.44 117.76 0 215.04-97.28 215.04-215.04V506.88c0-117.76-97.28-215.04-209.92-215.04z m87.04 471.04c0 66.56-56.32 122.88-122.88 122.88-66.56 0-122.88-56.32-122.88-122.88v-235.52c0-66.56 56.32-122.88 122.88-122.88 66.56 0 122.88 56.32 122.88 122.88v235.52zM8002.56 40.96V358.4l-5.12-5.12c-40.96-40.96-92.16-61.44-148.48-61.44-117.76 0-215.04 97.28-215.04 215.04v276.48c0 117.76 97.28 209.92 215.04 209.92 56.32 0 107.52-20.48 148.48-61.44l5.12-5.12v51.2h122.88V40.96h-122.88z m0 721.92c0 66.56-56.32 122.88-122.88 122.88-66.56 0-122.88-56.32-122.88-122.88v-235.52c0-66.56 56.32-122.88 122.88-122.88 66.56 0 122.88 56.32 122.88 122.88v235.52zM4157.44 496.64c-5.12-35.84-20.48-71.68-40.96-102.4-46.08-61.44-112.64-97.28-184.32-102.4h-15.36c-56.32 0-112.64 20.48-158.72 56.32-46.08 35.84-71.68 87.04-87.04 143.36h122.88c10.24-56.32 61.44-97.28 117.76-97.28 30.72 0 61.44 10.24 87.04 35.84 20.48 20.48 35.84 51.2 35.84 81.92v56.32h-174.08c-117.76 0-215.04 97.28-215.04 215.04 0 97.28 66.56 184.32 158.72 204.8h5.12c5.12 0 10.24 0 10.24 5.12h51.2c30.72 0 56.32-5.12 76.8-10.24 30.72-10.24 61.44-25.6 87.04-51.2l5.12-5.12v51.2h122.88v-455.68c0-5.12 0-10.24-5.12-25.6z m-122.88 256c0 66.56-46.08 122.88-112.64 133.12-10.24 0-20.48 5.12-25.6 5.12-20.48 0-40.96-5.12-61.44-15.36-5.12-5.12-10.24-5.12-15.36-10.24-5.12-5.12-15.36-10.24-20.48-20.48-15.36-20.48-20.48-40.96-20.48-66.56 0-61.44 51.2-112.64 112.64-112.64h148.48v87.04zM5314.56 501.76c-5.12-35.84-20.48-71.68-40.96-102.4-46.08-61.44-112.64-97.28-184.32-102.4h-15.36c-56.32 0-112.64 20.48-158.72 56.32-46.08 35.84-71.68 87.04-87.04 143.36h122.88c10.24-56.32 61.44-97.28 117.76-97.28 30.72 0 61.44 10.24 87.04 35.84 20.48 20.48 35.84 51.2 35.84 81.92v56.32H5017.6c-117.76 0-215.04 97.28-215.04 215.04 0 97.28 66.56 184.32 158.72 204.8h5.12c5.12 0 10.24 0 10.24 5.12h51.2c30.72 0 56.32-5.12 76.8-10.24 30.72-10.24 61.44-25.6 87.04-51.2l5.12-5.12v51.2h122.88v-455.68c-5.12-10.24-5.12-15.36-5.12-25.6z m-122.88 250.88c0 66.56-46.08 122.88-112.64 133.12-10.24 0-20.48 5.12-25.6 5.12-20.48 0-40.96-5.12-61.44-15.36-5.12-5.12-10.24-5.12-15.36-10.24-5.12-5.12-15.36-10.24-20.48-20.48-15.36-20.48-20.48-40.96-20.48-66.56 0-61.44 51.2-112.64 112.64-112.64h148.48v87.04z" fill="#FF6900" p-id="1617"></path></svg>