<svg height="2009" width="2500" xmlns="http://www.w3.org/2000/svg" viewBox="0 0 111.36600000000001 90"><linearGradient id="a" x1="50.056%" x2="50.056%" y1="94.15%" y2=".437%"><stop offset="0" stop-color="#05cd66"/><stop offset="1" stop-color="#61f380"/><stop offset="1" stop-color="#9eee69"/></linearGradient><linearGradient id="b" x1="50.089%" x2="50.089%" y1="93.535%" y2="-.036%"><stop offset="0" stop-color="#e4e6e6"/><stop offset="1" stop-color="#f0f0f0"/></linearGradient><g fill="none" fill-rule="evenodd"><path d="M0 33.466c0 10.04 5.474 19.213 13.933 25.286.746.496 1.12 1.24 1.12 2.231 0 .248-.125.62-.125.868-.622 2.479-1.742 6.57-1.866 6.693-.124.372-.249.62-.249.992 0 .744.622 1.363 1.369 1.363.248 0 .497-.124.746-.248l8.832-5.082c.622-.371 1.369-.62 2.115-.62.374 0 .871 0 1.244.125 4.106 1.24 8.584 1.859 13.187 1.859 22.267 0 40.306-14.998 40.306-33.467S62.573 0 40.306 0C18.038 0 0 14.998 0 33.466" fill="url(#a)"/><path d="M77.86 86.628c3.847 0 7.57-.5 10.92-1.498.249-.125.621-.125.993-.125.62 0 1.241.25 1.738.5l7.322 4.245c.248.125.372.25.62.25.62 0 1.117-.5 1.117-1.124 0-.25-.124-.5-.124-.874 0-.125-.993-3.497-1.49-5.62-.123-.25-.123-.5-.123-.749 0-.75.372-1.374.993-1.873 7.073-5.12 11.54-12.738 11.54-21.23 0-15.485-15.015-28.098-33.506-28.098S44.353 42.92 44.353 58.53c0 15.485 15.016 28.098 33.507 28.098z" fill="url(#b)"/><path d="M32.05 22.662c0 2.891-2.288 5.18-5.18 5.18s-5.18-2.289-5.18-5.18 2.29-5.18 5.18-5.18 5.18 2.289 5.18 5.18M58.92 22.662c0 2.891-2.288 5.18-5.179 5.18s-5.18-2.289-5.18-5.18 2.289-5.18 5.18-5.18 5.18 2.289 5.18 5.18" fill="#168743"/><g fill="#919191"><path d="M84.82 49.856c0 2.518 2.015 4.532 4.533 4.532s4.532-2.014 4.532-4.532-2.014-4.532-4.532-4.532-4.533 2.014-4.533 4.532M62.482 49.856c0 2.518 2.014 4.532 4.532 4.532s4.533-2.014 4.533-4.532-2.015-4.532-4.533-4.532-4.532 2.014-4.532 4.532"/></g></g></svg>