<?xml version="1.0" standalone="no"?><!DOCTYPE svg PUBLIC "-//W3C//DTD SVG 1.1//EN" "http://www.w3.org/Graphics/SVG/1.1/DTD/svg11.dtd"><svg t="1692235298002" class="icon" viewBox="0 0 4608 1024" version="1.1" xmlns="http://www.w3.org/2000/svg" p-id="1471" xmlns:xlink="http://www.w3.org/1999/xlink" width="900" height="200"><path d="M3266.56 773.12h327.68v-102.4h-327.68v-102.4H3584V35.84H2846.72v532.48h317.44v102.4h-327.68v102.4h327.68v112.64h-353.28v102.4h814.08v-102.4h-353.28v-112.64zM3276.8 138.24h215.04v112.64H3276.8V138.24z m0 215.04h215.04V460.8H3276.8V353.28zM3174.4 460.8h-215.04V353.28H3174.4V460.8z m0-209.92h-215.04V138.24H3174.4v112.64zM537.6 445.44H1075.2v122.88H537.6z" fill="#FF6A00" p-id="1472"></path><path d="M1341.44 5.12h-353.28L1075.2 128l256 81.92c46.08 15.36 76.8 61.44 76.8 107.52v389.12c0 46.08-30.72 92.16-76.8 107.52l-256 81.92-87.04 122.88h353.28c148.48 0 266.24-117.76 266.24-266.24V276.48c0-148.48-117.76-271.36-266.24-271.36zM276.48 814.08c-46.08-15.36-76.8-61.44-76.8-107.52V317.44c0-46.08 30.72-92.16 76.8-107.52l256-81.92L619.52 5.12H266.24C117.76 5.12 0 128 0 276.48v471.04c0 148.48 117.76 266.24 266.24 266.24h353.28l-87.04-122.88-256-76.8zM2493.44 250.88h-261.12v537.6h261.12V250.88z m-107.52 430.08h-56.32V353.28h56.32v327.68zM1848.32 988.16h102.4V138.24h107.52L1996.8 419.84v102.4h61.44v225.28c0 15.36-10.24 25.6-25.6 25.6h-25.6v102.4h51.2c56.32 0 102.4-46.08 102.4-102.4v-358.4H2099.2l61.44-281.6v-102.4h-312.32v957.44z" fill="#FF6A00" p-id="1473"></path><path d="M2206.72 138.24H2560v660.48c0 46.08-35.84 87.04-87.04 87.04h-76.8v102.4h107.52c87.04 0 163.84-71.68 163.84-163.84V138.24h35.84v-102.4h-496.64v102.4zM3763.2 40.96h737.28v102.4H3763.2zM4541.44 527.36v-102.4H3727.36v102.4h204.8l-163.84 358.4v102.4h691.2c30.72 0 51.2-25.6 51.2-51.2 0-10.24 0-15.36-5.12-20.48l-87.04-194.56h-112.64l76.8 163.84h-496.64l163.84-358.4h491.52z" fill="#FF6A00" p-id="1474"></path></svg>